<svg viewBox="0 0 640 400" data-background-color="#ffffff" preserveAspectRatio="xMidYMid meet" height="400" width="640" xmlns="http://www.w3.org/2000/svg" xmlns:xlink="http://www.w3.org/1999/xlink">
    <rect width="640" height="400" x="0" y="0" opacity="1" fill="#ffffff" data-fill-palette-color="background" id="background"></rect>
    <g id="tight-bounds" transform="matrix(1,0,0,1,122.24000000000001,163.9954136739971)">
        <svg viewBox="0 0 395.52 72.0091726520058" height="72.0091726520058" width="395.52">
            <g>
                <svg viewBox="0 0 487.94148152345724 88.83561485411138" height="72.0091726520058" width="395.52">
                    <g transform="matrix(1,0,0,1,92.42148152345732,21.796056763925723)">
                        <svg viewBox="0 0 395.5199999999999 45.24350132625994" height="45.24350132625994" width="395.5199999999999">
                            <g id="textblocktransform">
                                <svg viewBox="0 0 395.5199999999999 45.24350132625994" height="45.24350132625994" width="395.5199999999999" id="textblock">
                                    <g>
                                        <svg viewBox="0 0 395.5199999999999 45.24350132625994" height="45.24350132625994" width="395.5199999999999">
                                            <g transform="matrix(1,0,0,1,0,0)">
                                                <svg width="395.5199999999999" viewBox="3.130000114440918 -33.08000183105469 294.5 33.69000244140625" height="45.24350132625994" data-palette-color="#61777f">
                                                    <path d="M23.8-30.66L23.8-30.66 23.34-23.49 23.17-23.44Q21.36-26.15 17.02-26.95L17.02-26.95Q15.65-27.22 14.39-27.22 13.13-27.22 12.24-27 11.35-26.78 10.72-26.37L10.72-26.37Q9.38-25.49 9.38-24.07L9.38-24.07Q9.38-22.22 10.55-21.29L10.55-21.29Q12.01-20.17 15.41-19.71 18.8-19.26 20.85-18.48 22.9-17.7 24.22-16.5L24.22-16.5Q26.71-14.26 26.71-10.16L26.71-10.16Q26.71-4.79 22.66-1.88L22.66-1.88Q19.19 0.61 13.92 0.61L13.92 0.61Q9.67 0.61 5.52-1L5.52-1Q4.15-1.54 3.13-2.25L3.13-2.25 3.39-10.4 3.49-10.47Q6.52-5.25 13.43-5.25L13.43-5.25Q18.33-5.25 19.92-7.62L19.92-7.62Q20.46-8.42 20.46-9.41 20.46-10.4 20.14-11.05 19.82-11.69 19.09-12.16L19.09-12.16Q17.68-13.09 14.33-13.4 10.99-13.72 8.86-14.6 6.74-15.48 5.47-16.77L5.47-16.77Q3.17-19.12 3.17-23.32L3.17-23.32Q3.17-27.66 6.23-30.35L6.23-30.35Q9.33-33.08 14.59-33.08 19.85-33.08 23.8-30.66ZM51.83-12.82L51.83-32.59Q53.34-32.47 54.34-32.47L54.34-32.47 56.37-32.47Q57.39-32.47 58.52-32.67L58.52-32.67 58.52-12.48Q58.52-6.47 54.88-2.83L54.88-2.83Q51.44 0.61 46.24 0.61L46.24 0.61Q40.55 0.61 37.03-2.34L37.03-2.34Q33.1-5.66 33.1-11.91L33.1-11.91 33.1-32.59Q35.13-32.47 36.92-32.47 38.72-32.47 39.89-32.67L39.89-32.67 39.89-11.6Q39.89-8.52 41.77-6.81L41.77-6.81Q43.53-5.25 46.16-5.25L46.16-5.25Q50.07-5.25 51.36-9.25L51.36-9.25Q51.83-10.69 51.83-12.82L51.83-12.82ZM66.25 0L66.25-32.64Q69.65-33.08 73.21-33.08L73.21-33.08Q79.85-33.08 83.31-29.97 86.76-26.86 86.76-20.65L86.76-20.65Q86.76-15.11 82.98-11.89L82.98-11.89Q79.44-8.86 73.87-8.86L73.87-8.86Q73.24-8.86 72.48-8.94L72.48-8.94 72.48 0 66.25 0ZM73.95-27.2L73.95-27.2Q73.21-27.2 72.48-27.15L72.48-27.15 72.48-14.31Q73.26-14.21 74.38-14.21 75.51-14.21 76.73-14.69 77.95-15.16 78.78-16.02L78.78-16.02Q80.51-17.8 80.51-20.7L80.51-20.7Q80.51-27.2 73.95-27.2ZM98.14-5.86L108.1-5.86Q109.61-5.86 110.2-6.15L110.2-6.15 110.3-6.13 110.05 0 91.76 0 91.76-32.64Q92.42-32.59 93.23-32.57L93.23-32.57 94.94-32.52Q96.65-32.47 98.65-32.47L98.65-32.47Q104.24-32.47 109.71-32.67L109.71-32.67Q109.44-30.52 109.44-26.93L109.44-26.93Q109.44-26.54 109.49-26.34L109.49-26.34 109.44-26.27Q108.17-26.64 105.83-26.64L105.83-26.64 98.14-26.64 98.14-20.41 103.92-20.41Q106.61-20.41 107.15-20.56L107.15-20.56 107.22-14.53Q106.05-14.65 104.19-14.65L104.19-14.65 98.14-14.65 98.14-5.86ZM132.97 0.2L127.31-12.62Q126.58-12.57 125.75-12.57 124.92-12.57 123.28-12.7L123.28-12.7 123.28 0 116.81 0 116.81-32.64Q120.23-33.08 125.21-33.08L125.21-33.08Q132-33.08 135.33-30.58 138.66-28.08 138.66-22.85L138.66-22.85Q138.66-18.8 135.61-15.92L135.61-15.92Q134.61-14.99 133.32-14.31L133.32-14.31 138.3-3.81Q139.76-0.56 140.54 0.05L140.54 0.05 140.42 0.17Q138.05-0.22 132.97 0.2L132.97 0.2ZM125.67-27.32L125.67-27.32Q124.43-27.32 123.28-27.2L123.28-27.2 123.28-17.87Q124.48-17.7 126.09-17.7 127.7-17.7 128.8-17.98 129.9-18.26 130.7-18.85L130.7-18.85Q132.44-20.14 132.44-22.73 132.44-25.32 130.63-26.37L130.63-26.37Q128.95-27.32 125.67-27.32ZM165.54-30.66L165.54-30.66 165.08-23.49 164.9-23.44Q163.1-26.15 158.75-26.95L158.75-26.95Q157.38-27.22 156.13-27.22 154.87-27.22 153.98-27 153.09-26.78 152.45-26.37L152.45-26.37Q151.11-25.49 151.11-24.07L151.11-24.07Q151.11-22.22 152.28-21.29L152.28-21.29Q153.75-20.17 157.14-19.71 160.53-19.26 162.59-18.48 164.64-17.7 165.95-16.5L165.95-16.5Q168.44-14.26 168.44-10.16L168.44-10.16Q168.44-4.79 164.39-1.88L164.39-1.88Q160.93 0.61 155.65 0.61L155.65 0.61Q151.4 0.61 147.25-1L147.25-1Q145.89-1.54 144.86-2.25L144.86-2.25 145.13-10.4 145.23-10.47Q148.25-5.25 155.16-5.25L155.16-5.25Q160.07-5.25 161.66-7.62L161.66-7.62Q162.19-8.42 162.19-9.41 162.19-10.4 161.88-11.05 161.56-11.69 160.83-12.16L160.83-12.16Q159.41-13.09 156.07-13.4 152.72-13.72 150.6-14.6 148.47-15.48 147.2-16.77L147.2-16.77Q144.91-19.12 144.91-23.32L144.91-23.32Q144.91-27.66 147.96-30.35L147.96-30.35Q151.06-33.08 156.32-33.08 161.58-33.08 165.54-30.66ZM189.61-33.08L189.61-33.08Q194.17-33.08 197.4-31.49L197.4-31.49 197.4-24.02 197.35-23.97Q195.98-26.07 191.59-26.76L191.59-26.76Q190.29-26.98 188.32-26.98 186.34-26.98 184.43-26.23 182.53-25.49 181.31-24.12L181.31-24.12Q178.94-21.46 178.94-16.53L178.94-16.53Q178.94-10.79 181.94-7.98L181.94-7.98Q184.43-5.64 188.53-5.64L188.53-5.64Q193.17-5.64 196.05-7.62L196.05-7.62Q197.1-8.33 197.84-9.38L197.84-9.38 197.91-9.33 197.91-2.49Q194.17 0.61 187.85 0.61L187.85 0.61Q180.4 0.61 176.18-4.13L176.18-4.13Q172.13-8.64 172.13-16.09L172.13-16.09Q172.13-23.97 176.57-28.52L176.57-28.52Q181.06-33.08 189.61-33.08ZM220.22 0.2L214.56-12.62Q213.83-12.57 213-12.57 212.17-12.57 210.53-12.7L210.53-12.7 210.53 0 204.06 0 204.06-32.64Q207.48-33.08 212.46-33.08L212.46-33.08Q219.25-33.08 222.58-30.58 225.91-28.08 225.91-22.85L225.91-22.85Q225.91-18.8 222.86-15.92L222.86-15.92Q221.86-14.99 220.56-14.31L220.56-14.31 225.54-3.81Q227.01-0.56 227.79 0.05L227.79 0.05 227.67 0.17Q225.3-0.22 220.22 0.2L220.22 0.2ZM212.92-27.32L212.92-27.32Q211.68-27.32 210.53-27.2L210.53-27.2 210.53-17.87Q211.73-17.7 213.34-17.7 214.95-17.7 216.05-17.98 217.15-18.26 217.95-18.85L217.95-18.85Q219.68-20.14 219.68-22.73 219.68-25.32 217.88-26.37L217.88-26.37Q216.19-27.32 212.92-27.32ZM233.94 0L233.94-32.57Q236.38-32.47 236.89-32.47L236.89-32.47 238.65-32.47Q239.95-32.47 240.73-32.67L240.73-32.67 240.7 0 233.94 0ZM270.4-2.38Q268.61-0.95 265.75-0.17 262.89 0.61 258.73 0.61 254.57 0.61 249.88-0.15L249.88-0.15 249.88-32.32Q254.62-33.08 258.1-33.08 261.57-33.08 263.81-32.42 266.04-31.76 267.46-30.64L267.46-30.64Q270.24-28.47 270.24-25.01 270.24-21.56 267.73-19.29L267.73-19.29Q270.71-18.36 272.34-15.77L272.34-15.77Q273.83-13.45 273.83-10.63 273.83-7.81 273.01-5.81 272.19-3.81 270.4-2.38ZM256.35-27.81L256.35-20.19Q257.37-20.02 258.91-20.02 260.45-20.02 261.44-20.42 262.43-20.83 262.97-21.44L262.97-21.44Q263.84-22.44 263.84-24.22L263.84-24.22Q263.84-27.95 259.45-27.95L259.45-27.95Q257.59-27.95 256.35-27.81L256.35-27.81ZM259.96-14.97L259.96-14.97Q257.91-14.97 256.35-14.7L256.35-14.7 256.35-5.1Q258.06-4.66 259.94-4.66 261.82-4.66 263.25-5.11 264.67-5.57 265.65-6.35L265.65-6.35Q267.63-7.96 267.63-10.45L267.63-10.45Q267.63-14.97 259.96-14.97ZM285.47-5.86L295.43-5.86Q296.95-5.86 297.53-6.15L297.53-6.15 297.63-6.13 297.39 0 279.1 0 279.1-32.64Q279.76-32.59 280.57-32.57L280.57-32.57 282.27-32.52Q283.98-32.47 285.99-32.47L285.99-32.47Q291.58-32.47 297.05-32.67L297.05-32.67Q296.78-30.52 296.78-26.93L296.78-26.93Q296.78-26.54 296.83-26.34L296.83-26.34 296.78-26.27Q295.51-26.64 293.16-26.64L293.16-26.64 285.47-26.64 285.47-20.41 291.26-20.41Q293.94-20.41 294.48-20.56L294.48-20.56 294.56-14.53Q293.38-14.65 291.53-14.65L291.53-14.65 285.47-14.65 285.47-5.86Z" opacity="1" transform="matrix(1,0,0,1,0,0)" fill="#61777f" class="undefined-text-0" data-fill-palette-color="primary" id="text-0"></path>
                                                </svg>
                                            </g>
                                        </svg>
                                    </g>
                                </svg>
                            </g>
                        </svg>
                    </g>
                    <g>
                        <svg viewBox="0 0 81.74057670435917 88.83561485411138" height="88.83561485411138" width="81.74057670435917">
                            <g>
                                <svg xmlns="http://www.w3.org/2000/svg" xmlns:xlink="http://www.w3.org/1999/xlink" version="1.0" x="0" y="0" viewBox="2.9790000915527344 0.9920001029968262 44.020999908447266 47.84199905395508" enable-background="new 0 0 50 50" xml:space="preserve" height="88.83561485411138" width="81.74057670435917" class="icon-icon-0" data-fill-palette-color="accent" id="icon-0">
                                    <g fill="#3d9970" data-fill-palette-color="accent">
                                        <g fill="#3d9970" data-fill-palette-color="accent">
                                            <g fill="#3d9970" data-fill-palette-color="accent">
                                                <path fill="#3d9970" d="M25.149 10.989c12.469 0 21.576-2.237 21.576-4.998s-9.107-4.999-21.576-4.999C12.68 0.992 3.573 3.23 3.573 5.991S12.68 10.989 25.149 10.989z" data-fill-palette-color="accent"></path>
                                                <path fill="#3d9970" d="M41.028 30.923c2.299 0 4.29 0.909 5.829 2.381C46.939 33.233 47 33.163 47 33.095V22.217c-4 2.167-13.102 3.288-22 3.288S7 24.384 3 22.217v10.878c2 1.685 9.804 3.748 22.091 3.748 2.846 0 5.492-0.115 7.871-0.306C34.169 33.263 37.335 30.923 41.028 30.923z" data-fill-palette-color="accent"></path>
                                                <path fill="#3d9970" d="M32.456 39.495c0-0.383 0.035-0.758 0.084-1.127-2.398 0.174-4.954 0.266-7.449 0.266C16.193 38.634 7 37.513 3 35.345v8.565c0 0.066-0.021 0.132-0.021 0.2C2.979 44.177 3 44.243 3 44.31V44h0.118c1.34 3 10.164 4.834 22.032 4.834 5.361 0 10.176-0.361 13.939-1.074C35.29 46.88 32.456 43.562 32.456 39.495z" data-fill-palette-color="accent"></path>
                                                <path fill="#3d9970" d="M47 19.966V9.058c-4 2.376-12.83 3.607-22 3.607S7 11.434 3 9.058v10.908c2 1.685 9.713 3.747 22 3.747C37.289 23.713 46 21.65 47 19.966z" data-fill-palette-color="accent"></path>
                                            </g>
                                        </g>
                                        <g fill="#3d9970" data-fill-palette-color="accent">
                                            <path fill="#3d9970" d="M46.071 36.64c0.232-0.4 0.084-0.921-0.332-1.16l-3.607-2.084c-0.416-0.239-0.939-0.107-1.172 0.293l-0.639 1.105 5.111 2.951L46.071 36.64z" data-fill-palette-color="accent"></path>
                                            <path fill="#3d9970" d="M37.368 45.812c0.059-0.022 1.039-0.414 2.055-0.82l-2.371-1.369C37.208 44.705 37.358 45.749 37.368 45.812z" data-fill-palette-color="accent"></path>
                                            <path fill="#3d9970" d="M38.567 41.237l2.969-5.141-1.436-0.828c-0.049 0.087-2.854 4.945-2.967 5.141C37.763 40.276 38.37 40.626 38.567 41.237z" data-fill-palette-color="accent"></path>
                                            <path fill="#3d9970" d="M40.337 42.258l2.967-5.14L41.87 36.29c-0.287 0.498-2.861 4.954-2.969 5.14 0.307-0.065 0.615-0.021 0.881 0.134C40.048 41.716 40.239 41.96 40.337 42.258z" data-fill-palette-color="accent"></path>
                                            <path fill="#3d9970" d="M40.288 42.839l-0.07 0.025L40.2 42.806c-0.102-0.338-0.326-0.619-0.635-0.799-0.311-0.179-0.666-0.232-1.01-0.15l-0.051 0.017-0.021-0.076c-0.207-0.665-0.91-1.076-1.59-0.937 0.033 0.229 0.184 1.262 0.332 2.294l2.516 1.453c0.969-0.388 1.938-0.774 2.15-0.86-0.104-0.316-0.32-0.582-0.617-0.754C40.97 42.818 40.62 42.764 40.288 42.839z" data-fill-palette-color="accent"></path>
                                            <path fill="#3d9970" d="M40.731 42.485c0.305-0.067 0.613-0.02 0.877 0.133 0.266 0.152 0.461 0.397 0.557 0.695l2.967-5.14-1.434-0.828L40.731 42.485z" data-fill-palette-color="accent"></path>
                                        </g>
                                    </g>
                                </svg>
                            </g>
                        </svg>
                    </g>
                </svg>
            </g>
            <defs></defs>
        </svg>
        <rect width="395.52" height="72.0091726520058" fill="none" stroke="none" visibility="hidden"></rect>
    </g>
</svg>